<svg width="160" height="38" viewBox="0 0 160 38" fill="none" xmlns="http://www.w3.org/2000/svg" class="" data-fg-clia0=":0:/src/app/components/LogoPrimary.tsx:11:5:271:896:e:svg:xtetxte:1" data-fgid-clia0=":r8:" data-fg-callsite-d3bl11="" id="logo-primary-light"><path fill-rule="evenodd" clip-rule="evenodd" d="M0 7C0 3.13401 3.13401 0 7 0C10.866 0 14 3.13401 14 7C14 8.48601 13.519 9.85901 12.702 10.976L7 22L1.29799 10.976C0.480995 9.85901 0 8.48601 0 7ZM7 10C8.65685 10 10 8.65685 10 7C10 5.34315 8.65685 4 7 4C5.34315 4 4 5.34315 4 7C4 8.65685 5.34315 10 7 10Z" fill="#E8281A" data-fg-clia2=":0:/src/app/components/LogoPrimary.tsx:21:7:500:357:e:path"></path><text x="24" y="19" font-family="SF Pro Display, -apple-system, BlinkMacSystemFont, sans-serif" font-size="24" font-weight="300" fill="#111111" letter-spacing="-0.72" data-fg-clia4=":0:/src/app/components/LogoPrimary.tsx:29:7:898:258:e:text:t">wf—here</text></svg>